# File created by Blade
# Date/Time:  Mon Sep 22 16:09:39 2014
# Frame Rate: 120.000 fps
#------------------------------------------------------
:FULLY-SPECIFIED
:DEGREES
3483
root 1.721666 36.887682 4.119395 7.276179 -3.822823 1.708213
RightUpLeg 3.922556 -2.708987 -1.123133
RightLeg -5.882649 -0.000000 0.000000
RightFoot -15.211142 -17.937914 16.035681
RightToeBase 12.350217 -0.000000 -0.000000
LeftUpLeg 2.650675 4.181566 2.731635
LeftLeg -4.499166 -0.000000 0.000000
LeftFoot -9.785417 11.421315 -18.715363
LeftToeBase 6.506543 -0.000000 -0.000000
Spine -10.073267 -27.106223 1.205017
RightShoulder -15.099012 -24.147127 -0.252989
RightArm 14.586800 26.026667 93.836455
RightForeArm 112.455703 -0.000000 6.797071
RightHand 5.871143 -0.000000 -49.187354
RightHandThumb1 -24.326973 -0.000000 -32.862282
LeftShoulder -30.754205 41.984654 -7.423158
LeftArm 36.475243 13.499545 -75.412882
LeftForeArm 14.199554 -0.000000 25.255827
LeftHand -13.798502 0.000000 -6.112589
LeftHandThumb1 -26.253704 0.000000 33.147579
Head 16.679143 7.297987 12.034817
3484
root 1.730762 36.887154 4.129017 7.308788 -3.926115 1.685361
RightUpLeg 3.887800 -2.674226 -1.128507
RightLeg -5.874758 -0.000000 0.000000
RightFoot -15.165533 -17.903145 15.999189
RightToeBase 12.293981 -0.000000 -0.000000
LeftUpLeg 2.690171 4.283864 2.734133
LeftLeg -4.577584 -0.000000 0.000000
LeftFoot -9.768088 11.388565 -18.750192
LeftToeBase 6.508449 -0.000000 -0.000000
Spine -10.188263 -27.092197 1.373951
RightShoulder -15.017634 -24.194001 -0.320082
RightArm 14.464687 26.109309 93.624361
RightForeArm 111.926661 -0.000000 7.320587
RightHand 6.334219 -0.000000 -47.927209
RightHandThumb1 -24.326973 -0.000000 -32.862282
LeftShoulder -30.748167 41.993502 -7.456875
LeftArm 36.651634 14.008875 -74.871200
LeftForeArm 15.249365 -0.000000 25.137197
LeftHand -13.345980 0.000000 -7.682600
LeftHandThumb1 -26.253704 0.000000 33.147579
Head 16.731955 7.407449 12.127499
3485
root 1.741739 36.886706 4.140426 7.310495 -4.065604 1.674944
RightUpLeg 3.879986 -2.632685 -1.152435
RightLeg -5.869290 -0.000000 0.000000
RightFoot -15.138941 -17.830095 15.994457
RightToeBase 12.265318 -0.000000 -0.000000
LeftUpLeg 2.762997 4.438112 2.718326
LeftLeg -4.646195 -0.000000 0.000000
LeftFoot -9.742005 11.348065 -18.758081
LeftToeBase 6.504834 -0.000000 -0.000000
Spine -10.242508 -27.004603 1.496647
RightShoulder -14.968034 -24.184073 -0.398997
RightArm 14.389013 26.519109 93.440820
RightForeArm 110.988678 0.000000 7.784420
RightHand 6.944751 0.000000 -46.641369
RightHandThumb1 -24.326973 -0.000000 -32.862282
LeftShoulder -30.710521 41.920553 -7.509347
LeftArm 36.757905 14.323855 -74.435851
LeftForeArm 16.715539 0.000000 25.089398
LeftHand -12.872290 -0.000000 -9.204468
LeftHandThumb1 -26.253704 0.000000 33.147579
Head 16.741426 7.459663 12.186555
3486
root 1.753677 36.887305 4.150460 7.305124 -4.225850 1.682684
RightUpLeg 3.873965 -2.593348 -1.196365
RightLeg -5.866458 -0.000000 0.000000
RightFoot -15.132449 -17.742951 15.975983
RightToeBase 12.371436 -0.000000 -0.000000
LeftUpLeg 2.820440 4.548799 2.680706
LeftLeg -4.671427 -0.000000 0.000000
LeftFoot -9.745735 11.356930 -18.792312
LeftToeBase 6.465761 -0.000000 -0.000000
Spine -10.276679 -26.895377 1.576658
RightShoulder -14.876220 -24.115137 -0.500517
RightArm 14.168476 26.682804 93.050077
RightForeArm 110.500759 -0.000000 8.333275
RightHand 7.710322 -0.000000 -45.880233
RightHandThumb1 -24.326973 -0.000000 -32.862282
LeftShoulder -30.678577 41.836211 -7.573418
LeftArm 36.826146 14.471677 -74.125110
LeftForeArm 18.219900 -0.000000 25.081332
LeftHand -12.507882 0.000000 -10.550291
LeftHandThumb1 -26.253704 0.000000 33.147579
Head 16.723323 7.486076 12.242366
